<?xml version="1.0" encoding="iso-8859-1"?>
<!-- Generator: Adobe Illustrator 19.0.0, SVG Export Plug-In . SVG Version: 6.00 Build 0)  -->
<svg version="1.1" id="Layer_1" xmlns="http://www.w3.org/2000/svg" xmlns:xlink="http://www.w3.org/1999/xlink" x="0px" y="0px"
	 viewBox="0 0 512 512" style="enable-background:new 0 0 512 512;" xml:space="preserve">
<g>
	<rect x="111.66" y="471.149" style="fill:#E8D6BD;" width="43.574" height="32.681"/>
	<rect x="443.915" y="471.149" style="fill:#E8D6BD;" width="43.574" height="32.681"/>
	<circle style="fill:#E8D6BD;" cx="416.681" cy="81.702" r="40.851"/>
</g>
<path style="fill:#D2BA9C;" d="M95.319,8.17v81.702c0,17.974,14.706,32.681,32.681,32.681h201.532v348.596H503.83V8.17H95.319z
	 M416.681,122.553c-22.561,0-40.851-18.29-40.851-40.851s18.29-40.851,40.851-40.851s40.851,18.29,40.851,40.851
	S439.242,122.553,416.681,122.553z"/>
<path style="fill:#BD9F79;" d="M128,389.447c-17.974,0-32.681,14.706-32.681,32.681v49.021h234.213v-81.702H128z"/>
<path style="fill:#F9EBDB;" d="M277.787,264.17v27.234c0,36.101-29.26,65.362-65.362,65.362s-65.362-29.26-65.362-65.362V264.17
	H277.787z"/>
<polygon style="fill:#296B94;" points="8.17,147.064 8.17,196.085 128,187.915 128,155.234 "/>
<path style="fill:#98E1E2;" d="M160.681,122.553v49.021c0,8.987,7.353,16.34,16.34,16.34h70.809c8.987,0,16.34-7.353,16.34-16.34
	v-49.021H160.681z"/>
<g>
	<circle style="fill:#700D00;" cx="384" cy="389.447" r="8.17"/>
	<circle style="fill:#700D00;" cx="384" cy="340.426" r="8.17"/>
	<circle style="fill:#700D00;" cx="384" cy="291.404" r="8.17"/>
	<path style="fill:#700D00;" d="M416.681,130.723c27.03,0,49.021-21.991,49.021-49.021s-21.991-49.021-49.021-49.021
		c-27.03,0-49.021,21.991-49.021,49.021S389.651,130.723,416.681,130.723z M416.681,49.021c18.02,0,32.681,14.661,32.681,32.681
		s-14.661,32.681-32.681,32.681c-15.2,0-28.01-10.431-31.647-24.511h39.817c4.512,0,8.17-3.658,8.17-8.17
		c0-4.512-3.658-8.17-8.17-8.17h-39.817C388.671,59.452,401.481,49.021,416.681,49.021z"/>
	<path style="fill:#700D00;" d="M145.276,321.363c11.491,25.656,37.267,43.573,67.149,43.573c40.546,0,73.532-32.986,73.532-73.532
		V264.17c0-4.512-3.658-8.17-8.17-8.17H115.335c-2.916,0-5.611,1.555-7.072,4.079c-3.58,6.186-5.471,13.252-5.471,20.433
		c0,22.526,18.325,40.851,40.851,40.851H145.276z M155.234,272.34h114.383v19.064c0,31.536-25.656,57.191-57.191,57.191
		s-57.191-25.656-57.191-57.191V272.34z M119.133,280.512c0-2.797,0.477-5.562,1.397-8.171h18.364v19.064
		c0,4.563,0.417,9.03,1.217,13.365C128.264,303.052,119.133,292.828,119.133,280.512z"/>
	<path style="fill:#700D00;" d="M155.234,495.66H111.66c-4.512,0-8.17,3.658-8.17,8.17s3.658,8.17,8.17,8.17h43.574
		c4.512,0,8.17-3.658,8.17-8.17S159.746,495.66,155.234,495.66z"/>
	<path style="fill:#700D00;" d="M487.489,495.66h-43.574c-4.512,0-8.17,3.658-8.17,8.17s3.658,8.17,8.17,8.17h43.574
		c4.512,0,8.17-3.658,8.17-8.17S492.001,495.66,487.489,495.66z"/>
	<path style="fill:#700D00;" d="M503.83,0H95.319c-4.512,0-8.17,3.658-8.17,8.17v81.702c0,22.526,18.325,40.851,40.851,40.851
		h24.511v32.681h-16.34v-8.17c0-4.296-3.328-7.859-7.615-8.151l-119.83-8.17c-2.257-0.158-4.479,0.635-6.133,2.181
		C0.939,142.639,0,144.8,0,147.064v49.021c0,2.264,0.939,4.426,2.593,5.97c1.519,1.418,3.513,2.201,5.576,2.201
		c0.185,0,0.37-0.007,0.557-0.02l119.83-8.17c4.287-0.292,7.615-3.854,7.615-8.151v-8.17h17.746
		c3.373,9.509,12.454,16.34,23.105,16.34h27.234v13.617c0,4.512,3.658,8.17,8.17,8.17s8.17-3.658,8.17-8.17v-13.617h27.234
		c13.516,0,24.511-10.995,24.511-24.511v-40.851h49.021v250.553H128c-22.526,0-40.851,18.325-40.851,40.851v49.021
		c0,4.512,3.658,8.17,8.17,8.17H503.83c4.512,0,8.17-3.658,8.17-8.17V8.17C512,3.658,508.342,0,503.83,0z M119.83,180.283
		L16.34,187.339V155.81l103.489,7.056V180.283z M256,171.574c0,4.506-3.665,8.17-8.17,8.17h-70.809c-4.506,0-8.17-3.665-8.17-8.17
		v-40.851H256V171.574z M495.66,462.979h-392.17v-40.851c0-13.516,10.995-24.511,24.511-24.511h193.362v40.851
		c0,4.512,3.658,8.17,8.17,8.17c4.512,0,8.17-3.658,8.17-8.17V122.553c0-4.512-3.658-8.17-8.17-8.17H128
		c-13.516,0-24.511-10.995-24.511-24.511V16.34h392.17V462.979z"/>
</g>
<g>
</g>
<g>
</g>
<g>
</g>
<g>
</g>
<g>
</g>
<g>
</g>
<g>
</g>
<g>
</g>
<g>
</g>
<g>
</g>
<g>
</g>
<g>
</g>
<g>
</g>
<g>
</g>
<g>
</g>
</svg>
